#define RefinedLogo_width 128
#define RefinedLogo_height 128
static unsigned char RefinedLogo_bits[] = {
   0x00, 0x00, 0x00, 0x00, 0x00, 0x00, 0x00, 0x00, 0x00, 0x00, 0x00, 0x00,
   0x00, 0x00, 0x00, 0x00, 0x00, 0x00, 0x00, 0x00, 0x00, 0x00, 0x00, 0x00,
   0x00, 0x00, 0x00, 0x00, 0x00, 0x00, 0x00, 0x00, 0x00, 0x00, 0x00, 0x00,
   0x00, 0x00, 0x00, 0x00, 0x00, 0x00, 0x00, 0x00, 0x00, 0x00, 0x00, 0x00,
   0x00, 0x00, 0x00, 0x00, 0x00, 0x00, 0x00, 0x00, 0x00, 0x00, 0x00, 0x00,
   0x00, 0x00, 0x00, 0x00, 0x00, 0x00, 0x00, 0x00, 0x00, 0x00, 0x00, 0x00,
   0x00, 0x00, 0x00, 0x00, 0x00, 0x00, 0x00, 0x00, 0x00, 0x00, 0x00, 0x00,
   0x00, 0x00, 0x00, 0x00, 0x00, 0x00, 0x00, 0x00, 0x00, 0x00, 0x00, 0x00,
   0x00, 0x00, 0x00, 0x00, 0x00, 0x00, 0x00, 0x00, 0x00, 0x00, 0x00, 0x00,
   0x00, 0x00, 0x00, 0x00, 0x00, 0x00, 0x00, 0x00, 0x00, 0x00, 0x00, 0x00,
   0x00, 0x00, 0x00, 0x00, 0x00, 0x00, 0x00, 0x00, 0x00, 0x00, 0x00, 0x00,
   0x00, 0x00, 0x00, 0x00, 0x00, 0x00, 0x00, 0x00, 0x00, 0x00, 0x00, 0x00,
   0x00, 0x00, 0x00, 0x00, 0x00, 0x00, 0x00, 0x00, 0x00, 0x00, 0x00, 0x00,
   0x00, 0x00, 0x00, 0x00, 0x00, 0x00, 0x00, 0x00, 0x00, 0x00, 0x00, 0x00,
   0x00, 0x00, 0x00, 0x00, 0x00, 0x00, 0x00, 0x00, 0x00, 0x00, 0x00, 0x00,
   0x00, 0x00, 0x00, 0x00, 0x00, 0x00, 0x00, 0x00, 0x00, 0x00, 0x00, 0x00,
   0x00, 0x00, 0x00, 0x00, 0x00, 0x00, 0x00, 0x00, 0x00, 0x00, 0x00, 0x00,
   0x00, 0x00, 0x00, 0x00, 0x00, 0x00, 0x00, 0x00, 0x05, 0x00, 0x00, 0x00,
   0x00, 0x00, 0x00, 0x00, 0x00, 0x00, 0x00, 0x00, 0x00, 0x00, 0x00, 0x80,
   0x07, 0x00, 0x00, 0x00, 0x00, 0x00, 0x00, 0x00, 0x00, 0x00, 0x00, 0x00,
   0x00, 0x00, 0x00, 0x00, 0x17, 0x00, 0x00, 0x00, 0x00, 0x00, 0x00, 0x00,
   0x00, 0x00, 0x00, 0x00, 0x00, 0x00, 0x00, 0x00, 0x2f, 0x00, 0x00, 0xfc,
   0xdf, 0x00, 0x00, 0x00, 0x00, 0x00, 0x00, 0x00, 0x00, 0x00, 0x00, 0x00,
   0xbf, 0x00, 0x80, 0xff, 0xff, 0x03, 0x00, 0x00, 0x00, 0x00, 0x00, 0x00,
   0x00, 0x00, 0x00, 0x00, 0xfe, 0x01, 0xe0, 0xff, 0xfe, 0x1f, 0x00, 0x00,
   0x00, 0x00, 0x00, 0x00, 0x00, 0x00, 0x00, 0x00, 0xf6, 0xff, 0xff, 0x03,
   0x80, 0xff, 0x00, 0x00, 0x00, 0x00, 0x00, 0x00, 0x00, 0x00, 0x00, 0x00,
   0x86, 0xff, 0x1f, 0x00, 0x00, 0xfc, 0x03, 0x00, 0x00, 0x00, 0x00, 0x00,
   0x00, 0x00, 0x00, 0x00, 0x0e, 0xa8, 0x02, 0x00, 0x00, 0xe0, 0x1f, 0x00,
   0x00, 0x00, 0x00, 0x00, 0x00, 0x00, 0x00, 0x00, 0x0c, 0x00, 0x00, 0x00,
   0x00, 0x00, 0x7f, 0x00, 0x00, 0x00, 0x00, 0x00, 0x00, 0x00, 0x00, 0x00,
   0x1c, 0x00, 0x00, 0x00, 0x00, 0x00, 0xf8, 0x01, 0x00, 0x00, 0x00, 0x00,
   0x00, 0x00, 0x00, 0x00, 0x38, 0x00, 0x00, 0x00, 0x00, 0x00, 0xe0, 0x0f,
   0x00, 0x00, 0x00, 0x00, 0x00, 0x00, 0x00, 0x00, 0x30, 0x00, 0x00, 0x00,
   0x00, 0x00, 0x00, 0x1f, 0x00, 0x00, 0x00, 0x00, 0x00, 0x00, 0x00, 0x00,
   0x20, 0x00, 0x00, 0x00, 0x00, 0x00, 0x00, 0x7e, 0x00, 0x00, 0x00, 0x00,
   0x00, 0x00, 0x00, 0x00, 0x08, 0x00, 0x00, 0x00, 0x00, 0x00, 0x00, 0xf8,
   0x01, 0x00, 0x00, 0x00, 0x00, 0x00, 0x00, 0x00, 0x0e, 0x00, 0x00, 0x00,
   0x00, 0x00, 0x00, 0xf0, 0x03, 0x00, 0x00, 0x00, 0x00, 0x00, 0x00, 0x80,
   0x0f, 0x00, 0x00, 0x00, 0x00, 0x00, 0x00, 0xc0, 0x0f, 0x00, 0x00, 0x00,
   0x00, 0x00, 0x00, 0xc0, 0x03, 0x00, 0x00, 0x00, 0x00, 0x00, 0x00, 0x00,
   0x1f, 0x00, 0x00, 0x00, 0x00, 0x00, 0x00, 0xf0, 0x02, 0x00, 0x00, 0x00,
   0x00, 0x00, 0x00, 0x00, 0x3c, 0x00, 0x00, 0x00, 0x00, 0x00, 0x00, 0x7c,
   0x00, 0x00, 0x00, 0x00, 0x00, 0x00, 0x00, 0x00, 0x70, 0x00, 0x00, 0x00,
   0x00, 0x00, 0x00, 0x9f, 0x00, 0x00, 0x00, 0x00, 0x00, 0x00, 0x00, 0x00,
   0xe0, 0x00, 0x00, 0x00, 0x00, 0x00, 0xe0, 0x07, 0x00, 0x00, 0x00, 0x00,
   0x00, 0x00, 0x00, 0x00, 0xc0, 0x03, 0x00, 0x00, 0x00, 0x00, 0xf0, 0x01,
   0x00, 0x00, 0x00, 0x00, 0x00, 0x00, 0x00, 0x00, 0x00, 0x07, 0x00, 0x00,
   0x00, 0x00, 0x38, 0x00, 0x00, 0x00, 0x00, 0x00, 0x00, 0x00, 0x00, 0x80,
   0x01, 0x07, 0x00, 0x00, 0x00, 0x00, 0x38, 0xc0, 0x00, 0x70, 0x00, 0x00,
   0x00, 0x00, 0x00, 0xc0, 0x03, 0x0e, 0x00, 0x00, 0x00, 0x00, 0x30, 0xfc,
   0x00, 0xf0, 0x00, 0x00, 0x00, 0x00, 0x00, 0xe0, 0x03, 0x1c, 0x00, 0x00,
   0x00, 0x00, 0xf0, 0xfd, 0x00, 0xf0, 0x00, 0x00, 0x00, 0x00, 0x00, 0xf0,
   0x07, 0x70, 0x00, 0x00, 0x00, 0x00, 0xe0, 0x77, 0x00, 0xf8, 0x00, 0x00,
   0x00, 0x00, 0x00, 0xf8, 0x07, 0xf0, 0x00, 0x00, 0x00, 0x00, 0x80, 0x73,
   0x00, 0xd8, 0x00, 0x00, 0x00, 0x00, 0x00, 0xfc, 0x07, 0xe0, 0x00, 0x00,
   0x00, 0x00, 0x00, 0x78, 0x00, 0xcc, 0x00, 0x00, 0x00, 0x00, 0x00, 0xfe,
   0x0f, 0xc0, 0x01, 0x00, 0x00, 0x00, 0x00, 0x38, 0x00, 0xcc, 0x00, 0x00,
   0x00, 0x00, 0x03, 0xfe, 0x0f, 0x80, 0x03, 0x00, 0x00, 0x00, 0x00, 0x38,
   0xf0, 0xcf, 0x03, 0x00, 0x00, 0x80, 0x03, 0xef, 0x0f, 0x80, 0xb7, 0x02,
   0x00, 0x00, 0x00, 0xfc, 0xff, 0xff, 0x05, 0x00, 0x00, 0x80, 0x03, 0xcf,
   0x1f, 0x00, 0xde, 0x07, 0x00, 0x00, 0x00, 0xfe, 0xff, 0xff, 0x01, 0x00,
   0x00, 0xc0, 0x83, 0x0f, 0x1f, 0x00, 0xfe, 0x01, 0x00, 0x00, 0x00, 0xde,
   0xff, 0xff, 0x0b, 0x00, 0x00, 0xc0, 0x83, 0x0f, 0x1e, 0x00, 0xf0, 0x03,
   0x00, 0x00, 0x00, 0x8e, 0xef, 0xff, 0x07, 0x00, 0x00, 0xc0, 0x83, 0x03,
   0x1c, 0x00, 0xc0, 0x01, 0x00, 0x00, 0x00, 0xe6, 0xc3, 0xff, 0x0f, 0x00,
   0x00, 0xc0, 0x83, 0x03, 0x1c, 0x00, 0xc0, 0x03, 0x00, 0x00, 0x00, 0xf7,
   0xe1, 0xfe, 0x1f, 0x00, 0x00, 0xe0, 0xc3, 0x01, 0x0c, 0x00, 0xe0, 0x00,
   0x00, 0x00, 0x00, 0xff, 0x00, 0xaf, 0xff, 0x07, 0x00, 0xe0, 0xdf, 0x00,
   0x0c, 0x00, 0xe0, 0x01, 0x00, 0x00, 0x00, 0x7f, 0x00, 0x07, 0xfe, 0x7f,
   0x00, 0xfc, 0xff, 0x01, 0x2c, 0x00, 0x78, 0x00, 0x00, 0x00, 0x00, 0x3f,
   0x00, 0x07, 0x78, 0xf8, 0x2f, 0xfe, 0xff, 0x03, 0x2c, 0x00, 0x7e, 0x00,
   0x00, 0x00, 0x80, 0x1f, 0x00, 0x03, 0x70, 0xc0, 0xff, 0xff, 0xff, 0x0f,
   0x0c, 0x00, 0x1f, 0x00, 0x00, 0x00, 0x80, 0x07, 0x00, 0x03, 0xf0, 0x00,
   0xf4, 0xff, 0xff, 0x1f, 0x1c, 0x00, 0x3e, 0x00, 0x00, 0x00, 0x80, 0x3f,
   0x80, 0x03, 0xe0, 0x00, 0xe0, 0x07, 0xfc, 0x3f, 0x06, 0x00, 0x1e, 0x00,
   0x00, 0x00, 0x80, 0xff, 0x80, 0x03, 0xe0, 0x01, 0xf0, 0x01, 0xf0, 0x7f,
   0x0e, 0x00, 0xfc, 0x00, 0x00, 0x00, 0x80, 0xff, 0x01, 0x03, 0xc0, 0x07,
   0x78, 0x00, 0xf0, 0xfe, 0x06, 0x00, 0x78, 0x00, 0x00, 0x00, 0x80, 0xfb,
   0x03, 0x03, 0xc0, 0xbf, 0x3f, 0x00, 0x70, 0xf0, 0x0f, 0x00, 0xf0, 0x01,
   0x00, 0x00, 0xc0, 0xbf, 0x07, 0x02, 0xe0, 0xff, 0x3f, 0x00, 0x30, 0xf0,
   0x07, 0x00, 0xe0, 0x00, 0x00, 0x00, 0xc0, 0xcf, 0x0f, 0x0f, 0xe0, 0xff,
   0x1f, 0x00, 0x38, 0xc0, 0x07, 0x00, 0xe0, 0x01, 0x00, 0x00, 0xc0, 0xe3,
   0x7c, 0x0e, 0xf0, 0xff, 0x1f, 0x00, 0x38, 0xc0, 0x07, 0x00, 0xe0, 0x00,
   0x00, 0x00, 0x80, 0x07, 0xf8, 0x5f, 0xff, 0xe1, 0x1f, 0x00, 0x38, 0x80,
   0x07, 0x00, 0xc0, 0x01, 0x00, 0x00, 0xc0, 0x03, 0xe0, 0xff, 0x7f, 0xc0,
   0x1f, 0x00, 0x18, 0x80, 0x03, 0x00, 0xc0, 0x00, 0x00, 0x00, 0xc0, 0x07,
   0x00, 0xff, 0x1f, 0xc0, 0x3f, 0x00, 0x18, 0x00, 0x07, 0x00, 0xc0, 0x01,
   0x00, 0x00, 0x60, 0x06, 0x00, 0x50, 0x01, 0x80, 0x3f, 0x00, 0x18, 0x80,
   0x03, 0x80, 0xe1, 0x00, 0x00, 0x00, 0xc0, 0x06, 0x00, 0x00, 0x00, 0x80,
   0x7f, 0x00, 0x08, 0x00, 0x07, 0x80, 0xe7, 0x01, 0x00, 0x00, 0x60, 0x0e,
   0x00, 0x00, 0x00, 0x00, 0xff, 0x01, 0x38, 0x80, 0x03, 0xc0, 0xff, 0x00,
   0x00, 0x00, 0xe0, 0x0c, 0x00, 0x00, 0x00, 0x00, 0xfc, 0x07, 0x38, 0x00,
   0x07, 0x80, 0x7f, 0x00, 0x00, 0x00, 0x60, 0x0c, 0x00, 0x00, 0x00, 0x00,
   0xf8, 0x3f, 0x78, 0x80, 0x0f, 0xc0, 0x3d, 0x00, 0x00, 0x00, 0xe0, 0x1c,
   0x00, 0x00, 0x00, 0x00, 0xc0, 0xff, 0xff, 0xff, 0x07, 0x80, 0x29, 0x00,
   0x00, 0x00, 0x30, 0x18, 0x00, 0x00, 0x00, 0x00, 0x00, 0xfc, 0xff, 0xff,
   0x0f, 0xc0, 0x03, 0x00, 0x00, 0x00, 0x70, 0x38, 0x60, 0x00, 0x00, 0x00,
   0x00, 0x00, 0xfc, 0xff, 0x0f, 0x80, 0x03, 0x00, 0x00, 0x00, 0x30, 0x30,
   0x60, 0x00, 0x00, 0x00, 0x00, 0x00, 0x00, 0xcc, 0x07, 0xc0, 0x01, 0x00,
   0x00, 0x00, 0x30, 0x60, 0xc0, 0x00, 0x00, 0x00, 0x00, 0x00, 0x00, 0xcc,
   0x03, 0xc0, 0x03, 0x00, 0x00, 0x00, 0x30, 0x60, 0x80, 0x00, 0x00, 0x00,
   0x00, 0x00, 0x00, 0x84, 0x03, 0xc0, 0x01, 0x00, 0x00, 0x00, 0x30, 0xc0,
   0x80, 0x01, 0x00, 0x00, 0x00, 0x00, 0x00, 0x00, 0x03, 0xc0, 0x03, 0x00,
   0x00, 0x00, 0x18, 0xc0, 0x01, 0x01, 0x00, 0x00, 0x00, 0x00, 0x00, 0x80,
   0x01, 0xc0, 0x00, 0x00, 0x00, 0x00, 0x18, 0xa0, 0x03, 0x0e, 0x00, 0x3a,
   0x00, 0x00, 0x00, 0xc0, 0x03, 0xc0, 0x01, 0x00, 0x00, 0x00, 0x08, 0x20,
   0x03, 0xfc, 0xf1, 0xff, 0x00, 0x00, 0x00, 0xe0, 0x01, 0xe0, 0x00, 0x00,
   0x00, 0x00, 0x0c, 0x20, 0x06, 0xc0, 0xff, 0xc3, 0x01, 0x00, 0x00, 0xf0,
   0x00, 0xe0, 0x00, 0x00, 0x00, 0x00, 0x0f, 0x30, 0x0c, 0x00, 0x00, 0x00,
   0x07, 0x00, 0x00, 0x38, 0x00, 0xe0, 0x00, 0x00, 0x00, 0x00, 0x0f, 0x10,
   0x18, 0x00, 0x00, 0x00, 0x1c, 0x00, 0x08, 0x1c, 0x00, 0xe0, 0x00, 0x00,
   0x00, 0x00, 0x07, 0x18, 0x70, 0x00, 0x00, 0x00, 0x78, 0x01, 0x04, 0x0e,
   0x00, 0x70, 0x00, 0x00, 0x00, 0x00, 0x07, 0x08, 0xe0, 0x00, 0x00, 0x00,
   0x80, 0x1f, 0x06, 0x03, 0x00, 0x70, 0x00, 0x00, 0x00, 0x00, 0x03, 0x04,
   0xc0, 0x01, 0x00, 0x00, 0x00, 0xf8, 0xc3, 0x01, 0x00, 0x70, 0x00, 0x00,
   0x00, 0x00, 0x03, 0x0c, 0x80, 0x03, 0x00, 0x00, 0x00, 0x00, 0xe0, 0x02,
   0x00, 0x30, 0x00, 0x00, 0x00, 0x80, 0x01, 0x04, 0x00, 0x0f, 0x00, 0x00,
   0x00, 0x00, 0x3c, 0x02, 0x00, 0x38, 0x00, 0x00, 0x00, 0x80, 0x05, 0x02,
   0x00, 0x3c, 0x00, 0x00, 0x00, 0x00, 0x0f, 0x01, 0x00, 0x38, 0x00, 0x00,
   0x00, 0xc0, 0x00, 0x03, 0x80, 0xf8, 0x00, 0x00, 0x00, 0xe0, 0x01, 0x01,
   0x00, 0x1c, 0x00, 0x00, 0x00, 0xc0, 0x02, 0x02, 0x80, 0xe1, 0x07, 0x00,
   0x00, 0xfc, 0x00, 0x01, 0x00, 0x1c, 0x00, 0x00, 0x00, 0xc0, 0x00, 0x03,
   0xc0, 0xc5, 0x3f, 0x00, 0xd0, 0x8f, 0x80, 0x01, 0x00, 0x1e, 0x00, 0x00,
   0x00, 0xe0, 0x01, 0x01, 0x80, 0x0f, 0xfc, 0xff, 0xff, 0x03, 0x80, 0x00,
   0x00, 0x1e, 0x00, 0x00, 0x00, 0x60, 0x80, 0x00, 0xc0, 0x0f, 0xc4, 0xff,
   0x2f, 0x00, 0x80, 0x00, 0x00, 0x0e, 0x00, 0x00, 0x00, 0x70, 0x80, 0x00,
   0xc0, 0x1f, 0x00, 0x00, 0x00, 0x00, 0x40, 0x00, 0x00, 0x0f, 0x00, 0x00,
   0x00, 0x30, 0x40, 0x00, 0xc0, 0x0d, 0x00, 0x10, 0xc0, 0x03, 0x30, 0x00,
   0x00, 0x03, 0x00, 0x00, 0x00, 0xb0, 0x20, 0x00, 0xc0, 0x39, 0x00, 0x38,
   0xe0, 0x03, 0xf8, 0x00, 0x80, 0x07, 0x00, 0x00, 0x00, 0x38, 0x20, 0x00,
   0x60, 0x78, 0x00, 0x3c, 0xf8, 0x87, 0xff, 0x00, 0x80, 0x03, 0x00, 0x00,
   0x00, 0x38, 0x20, 0x00, 0xe0, 0xe1, 0x03, 0x7e, 0x3c, 0xfe, 0xef, 0x00,
   0x80, 0x01, 0x00, 0x00, 0x00, 0x0c, 0x10, 0x00, 0x60, 0xc0, 0xff, 0xff,
   0x3f, 0xfc, 0xc3, 0x00, 0xc0, 0x01, 0x00, 0x00, 0x00, 0x0c, 0x00, 0x00,
   0xf0, 0x02, 0xff, 0xe7, 0x2f, 0xa8, 0xe2, 0x00, 0xc0, 0x01, 0x00, 0x00,
   0x00, 0x0c, 0x08, 0x00, 0x30, 0x89, 0x54, 0xe0, 0x01, 0x00, 0x60, 0x00,
   0xe0, 0x00, 0x00, 0x00, 0x00, 0x0e, 0x04, 0x00, 0x78, 0x28, 0xb0, 0x5f,
   0xd5, 0x00, 0x70, 0x00, 0xe0, 0x00, 0x00, 0x00, 0x00, 0x06, 0x04, 0x00,
   0x18, 0xa0, 0xff, 0xff, 0xbf, 0x02, 0x30, 0x00, 0xe0, 0x00, 0x00, 0x00,
   0x00, 0x07, 0x00, 0x00, 0x38, 0xfd, 0xff, 0xff, 0xff, 0x9f, 0x30, 0x00,
   0x60, 0x00, 0x00, 0x00, 0x80, 0x03, 0x02, 0x00, 0x8e, 0xff, 0x00, 0x00,
   0xfc, 0x3f, 0x38, 0x00, 0xf0, 0x00, 0x00, 0x00, 0x00, 0x03, 0x01, 0x00,
   0xee, 0xff, 0x00, 0x00, 0xfc, 0xff, 0x3b, 0x00, 0x70, 0x00, 0x00, 0x00,
   0x80, 0x01, 0x01, 0x00, 0x7f, 0xff, 0x00, 0x00, 0xfe, 0xe3, 0x1f, 0x00,
   0x70, 0x00, 0x00, 0x00, 0xc0, 0xa1, 0x00, 0x00, 0x3f, 0xfe, 0x01, 0x00,
   0xff, 0x01, 0x3f, 0x00, 0x70, 0x00, 0x00, 0x00, 0xc0, 0xf0, 0x03, 0x80,
   0x3f, 0xfc, 0x03, 0x80, 0xff, 0x00, 0x0e, 0x00, 0x30, 0x00, 0x00, 0x00,
   0xe0, 0xf8, 0x0f, 0xe0, 0xf9, 0xfc, 0x0f, 0xe0, 0xff, 0x00, 0x0e, 0x00,
   0x78, 0x00, 0x00, 0x00, 0x60, 0x1d, 0x0c, 0x60, 0x60, 0xf8, 0x3f, 0xfc,
   0x7f, 0x00, 0x0e, 0x00, 0x30, 0x00, 0x00, 0x00, 0x70, 0x1c, 0x18, 0x78,
   0xc0, 0xf1, 0xff, 0xff, 0x3f, 0x00, 0x0e, 0x00, 0x78, 0x00, 0x00, 0x00,
   0x30, 0x0e, 0x18, 0x3c, 0xc0, 0xf0, 0xff, 0xff, 0x3f, 0x00, 0x06, 0x00,
   0x38, 0x00, 0x00, 0x00, 0x38, 0x0c, 0x30, 0x3e, 0xc0, 0xc1, 0xff, 0xff,
   0x0f, 0x00, 0x07, 0x00, 0x78, 0x00, 0x00, 0x00, 0x18, 0x0e, 0x30, 0x1f,
   0xc0, 0x80, 0xff, 0xff, 0x07, 0x00, 0x03, 0x00, 0x38, 0x00, 0x00, 0x00,
   0x1c, 0x0e, 0x30, 0x1f, 0xe0, 0x00, 0xff, 0xff, 0x03, 0x00, 0x07, 0x00,
   0x70, 0x00, 0x00, 0x00, 0x0c, 0x0e, 0xe0, 0x0f, 0xe0, 0x00, 0xf8, 0xff,
   0x00, 0x80, 0x03, 0x00, 0x38, 0x00, 0x00, 0x00, 0x1e, 0x0e, 0xe0, 0x0f,
   0x70, 0x00, 0xa0, 0x0f, 0x00, 0x80, 0x03, 0x00, 0x38, 0x00, 0x00, 0x00,
   0x23, 0x0e, 0xc0, 0x03, 0x70, 0x00, 0x00, 0x00, 0x00, 0x80, 0x03, 0x00,
   0x70, 0x00, 0x00, 0x00, 0x07, 0x0e, 0x80, 0x01, 0x30, 0x00, 0x00, 0x00,
   0x00, 0x80, 0x03, 0x00, 0x70, 0x00, 0x00, 0x00, 0x03, 0x0d, 0x00, 0x00,
   0xf0, 0x00, 0x00, 0x00, 0x00, 0xc0, 0x01, 0x00, 0x38, 0x00, 0x00, 0x00,
   0x03, 0x0c, 0x00, 0x00, 0xf8, 0x41, 0x00, 0x00, 0x00, 0x80, 0x01, 0x00,
   0x70, 0x00, 0x00, 0x00, 0xf8, 0x0f, 0x00, 0x00, 0xf8, 0xf0, 0x0f, 0x00,
   0x1e, 0xc0, 0x01, 0x00, 0x70, 0x00, 0x00, 0x00, 0xf8, 0x0f, 0x00, 0x00,
   0xf8, 0xf0, 0xff, 0x03, 0x7f, 0xe0, 0x01, 0x00, 0x70, 0x00, 0x00, 0x00,
   0x3c, 0x08, 0x00, 0x00, 0xf8, 0xf9, 0xff, 0x1f, 0x7f, 0xe0, 0x00, 0x00,
   0x70, 0x00, 0x00, 0x00, 0x0e, 0x00, 0x00, 0x00, 0xf0, 0xfb, 0xff, 0x1f,
   0x7f, 0xf0, 0x00, 0x00, 0x60, 0x00, 0x00, 0x00 };
