#define SampleLogo_width 64
#define SampleLogo_height 64
static unsigned char SampleLogo_bits[] = {
   0x00, 0x00, 0x00, 0x00, 0x00, 0x00, 0x00, 0x00, 0x00, 0x00, 0x00, 0x00,
   0x00, 0x00, 0x00, 0x00, 0x00, 0x00, 0x00, 0x00, 0x00, 0x00, 0x00, 0x00,
   0x00, 0x00, 0x00, 0x00, 0x00, 0x00, 0x00, 0x00, 0x00, 0x00, 0x00, 0x00,
   0x00, 0x00, 0x00, 0x00, 0x00, 0x00, 0x00, 0x00, 0x00, 0x00, 0x00, 0x00,
   0x00, 0x80, 0x00, 0x00, 0x00, 0x00, 0x00, 0x00, 0x00, 0x80, 0x07, 0x10,
   0x0a, 0x00, 0x00, 0x00, 0x00, 0x00, 0x1d, 0xf0, 0x1f, 0x00, 0x00, 0x00,
   0x00, 0x00, 0xf1, 0x1f, 0x78, 0x01, 0x00, 0x00, 0x00, 0x00, 0x03, 0x00,
   0xc0, 0x03, 0x00, 0x00, 0x00, 0x00, 0x02, 0x00, 0x00, 0x1e, 0x00, 0x00,
   0x00, 0x00, 0x06, 0x00, 0x00, 0x78, 0x00, 0x00, 0x00, 0x00, 0x02, 0x00,
   0x00, 0xe0, 0x01, 0x00, 0x00, 0x80, 0x01, 0x00, 0x00, 0x80, 0x03, 0x00,
   0x00, 0xc0, 0x01, 0x00, 0x00, 0x00, 0x06, 0x00, 0x00, 0x38, 0x00, 0x00,
   0x00, 0x00, 0x0c, 0x00, 0x00, 0x0c, 0x00, 0x00, 0x00, 0x00, 0x38, 0x00,
   0x00, 0x06, 0x40, 0x00, 0x00, 0x80, 0x71, 0x00, 0x00, 0xf4, 0xc0, 0x00,
   0x00, 0xc0, 0xc1, 0x00, 0x00, 0x58, 0xe0, 0x00, 0x00, 0xf0, 0xc3, 0x00,
   0x00, 0x60, 0xa0, 0x00, 0x00, 0xf1, 0x83, 0x03, 0x00, 0xe0, 0xff, 0x00,
   0x80, 0xb1, 0x03, 0x3f, 0x00, 0xf0, 0xff, 0x03, 0x80, 0x39, 0x03, 0x1c,
   0x00, 0xd0, 0xf9, 0x01, 0xc0, 0x09, 0x02, 0x08, 0x00, 0xf0, 0xb0, 0x1f,
   0xc0, 0x0b, 0x02, 0x1c, 0x00, 0x70, 0x10, 0xe6, 0xf3, 0x1f, 0x02, 0x07,
   0x00, 0x18, 0x10, 0x0c, 0xfe, 0x3f, 0x02, 0x03, 0x00, 0xf8, 0x10, 0x0c,
   0x0c, 0x7c, 0x01, 0x06, 0x00, 0xf8, 0x11, 0xf8, 0x07, 0xc4, 0x01, 0x04,
   0x00, 0xb8, 0x33, 0xfc, 0x03, 0xc6, 0x01, 0x0c, 0x00, 0x18, 0xbe, 0xcf,
   0x03, 0x86, 0x01, 0x08, 0x00, 0x1c, 0xf0, 0x83, 0x07, 0x82, 0x01, 0x08,
   0x00, 0x14, 0x00, 0x80, 0x07, 0x02, 0x81, 0x1d, 0x00, 0x24, 0x00, 0x00,
   0x1e, 0x86, 0x81, 0x07, 0x00, 0x24, 0x00, 0x00, 0xf8, 0xff, 0x83, 0x05,
   0x00, 0x64, 0x00, 0x00, 0x00, 0xfe, 0x83, 0x00, 0x00, 0x64, 0x10, 0x00,
   0x00, 0xa0, 0x81, 0x00, 0x00, 0xa2, 0x30, 0x7c, 0x00, 0x80, 0x80, 0x00,
   0x00, 0xa2, 0xf1, 0xff, 0x01, 0x80, 0x81, 0x00, 0x00, 0x22, 0xc1, 0x81,
   0xc3, 0xc0, 0xc0, 0x00, 0x00, 0x33, 0x02, 0x00, 0xfe, 0x20, 0xc0, 0x00,
   0x00, 0x31, 0x0c, 0x00, 0x00, 0x18, 0x40, 0x00, 0x80, 0x11, 0x18, 0x00,
   0x00, 0x0c, 0x40, 0x00, 0x80, 0x10, 0x70, 0x00, 0x00, 0x03, 0x60, 0x00,
   0x80, 0x18, 0xc8, 0x01, 0xe0, 0x00, 0x20, 0x00, 0xc0, 0x08, 0x38, 0xff,
   0x1f, 0x00, 0x30, 0x00, 0x40, 0x0c, 0x38, 0x00, 0x00, 0x00, 0x10, 0x00,
   0x60, 0x0c, 0x68, 0x60, 0x1c, 0x0e, 0x18, 0x00, 0x20, 0x06, 0xcc, 0x71,
   0xf6, 0x0f, 0x18, 0x00, 0x20, 0x02, 0x04, 0xcf, 0x03, 0x04, 0x08, 0x00,
   0x30, 0x03, 0x06, 0x00, 0x00, 0x04, 0x0c, 0x00, 0x90, 0x01, 0xe2, 0xff,
   0x3f, 0x06, 0x04, 0x00, 0x98, 0x01, 0xff, 0x00, 0xfe, 0x06, 0x04, 0x00,
   0xc8, 0x00, 0xf7, 0x00, 0x0f, 0x03, 0x04, 0x00, 0xec, 0xc3, 0xe6, 0xc3,
   0x0f, 0x03, 0x04, 0x00, 0x24, 0x62, 0xc8, 0xff, 0x07, 0x01, 0x06, 0x00,
   0x26, 0x74, 0x88, 0xff, 0x03, 0x01, 0x06, 0x00, 0x32, 0x34, 0x0c, 0xff,
   0x01, 0x01, 0x04, 0x00, 0x33, 0x3c, 0x04, 0x38, 0x80, 0x01, 0x06, 0x00,
   0x31, 0x08, 0x04, 0x00, 0x80, 0x00, 0x04, 0x00, 0x20, 0x00, 0x4e, 0x00,
   0x80, 0x00, 0x04, 0x00, 0x3e, 0x00, 0xce, 0x1f, 0xc7, 0x00, 0x04, 0x00,
   0x03, 0x00, 0xfc, 0x3f, 0xc7, 0x00, 0x04, 0x00 };
